<svg width="28" height="20" viewBox="0 0 28 20" fill="none" xmlns="http://www.w3.org/2000/svg">
<path fill-rule="evenodd" clip-rule="evenodd" d="M23.5796 0.548031L14.0009 0.332031L4.42225 0.548031C3.56134 0.567788 2.73352 0.883497 2.07809 1.44203C1.42267 2.00057 0.979642 2.76783 0.823578 3.6147C0.0483905 7.83495 0.0483905 12.1611 0.823578 16.3814C0.97969 17.2285 1.42291 17.9959 2.07861 18.5544C2.73431 19.113 3.56244 19.4286 4.42358 19.448L14.0009 19.6654L23.5796 19.4494C24.4405 19.4296 25.2683 19.1139 25.9237 18.5554C26.5792 17.9968 27.0222 17.2296 27.1782 16.3827C27.9529 12.1614 27.9529 7.83603 27.1782 3.61603C27.0221 2.76894 26.5789 2.00151 25.9232 1.44295C25.2675 0.884392 24.4394 0.568818 23.5782 0.549365M4.46758 2.54803L14.0009 2.33203L23.5342 2.54803C24.3609 2.5667 25.0609 3.1627 25.2102 3.97737C25.4147 5.09025 25.5622 6.20848 25.6529 7.33203H2.34758C2.43736 6.20848 2.58491 5.09025 2.79025 3.97737C2.86305 3.58268 3.06957 3.2251 3.37505 2.96479C3.68053 2.70447 4.06634 2.5573 4.46758 2.54803ZM2.24224 9.9987C2.24224 12.0147 2.42491 14.0294 2.79158 16.02C2.94091 16.8334 3.64091 17.4307 4.46758 17.4494L14.0009 17.6654L23.5342 17.4494C23.9353 17.4398 24.3207 17.2925 24.626 17.0322C24.9312 16.7719 25.1375 16.4145 25.2102 16.02C25.5769 14.0294 25.7596 12.0147 25.7596 9.9987H2.24224Z" fill="#373737"/>
</svg>
