<svg width="22" height="20" viewBox="0 0 22 20" fill="none" xmlns="http://www.w3.org/2000/svg">
<path d="M15 19V17C15 15.9391 14.5786 14.9217 13.8284 14.1716C13.0783 13.4214 12.0609 13 11 13H5C3.93913 13 2.92172 13.4214 2.17157 14.1716C1.42143 14.9217 1 15.9391 1 17V19" stroke="#373737" stroke-linecap="round" stroke-linejoin="round"/>
<path d="M8 9C10.2091 9 12 7.20914 12 5C12 2.79086 10.2091 1 8 1C5.79086 1 4 2.79086 4 5C4 7.20914 5.79086 9 8 9Z" stroke="#373737" stroke-linecap="round" stroke-linejoin="round"/>
<path d="M21 19.0009V17.0009C20.9993 16.1146 20.7044 15.2536 20.1614 14.5532C19.6184 13.8527 18.8581 13.3524 18 13.1309M15 1.13086C15.8604 1.35116 16.623 1.85156 17.1676 2.55317C17.7122 3.25478 18.0078 4.11769 18.0078 5.00586C18.0078 5.89403 17.7122 6.75694 17.1676 7.45855C16.623 8.16016 15.8604 8.66056 15 8.88086" stroke="#373737" stroke-linecap="round" stroke-linejoin="round"/>
</svg>
