<svg width="28" height="20" viewBox="0 0 28 20" fill="none" xmlns="http://www.w3.org/2000/svg">
<path fill-rule="evenodd" clip-rule="evenodd" d="M23.5796 0.549985L14.0009 0.333984L4.42225 0.549985C3.56134 0.569741 2.73352 0.88545 2.07809 1.44398C1.42267 2.00252 0.979642 2.76978 0.823578 3.61665C0.0483905 7.8369 0.0483905 12.1631 0.823578 16.3833C0.97969 17.2304 1.42291 17.9978 2.07861 18.5564C2.73431 19.115 3.56244 19.4305 4.42358 19.45L14.0009 19.6673L23.5796 19.4513C24.4405 19.4316 25.2683 19.1159 25.9237 18.5573C26.5792 17.9988 27.0222 17.2315 27.1782 16.3847C27.9529 12.1633 27.9529 7.83798 27.1782 3.61798C27.0221 2.77089 26.5789 2.00346 25.9232 1.4449C25.2675 0.886345 24.4394 0.570771 23.5782 0.551318M4.46758 2.54998L14.0009 2.33398L23.5342 2.54998C24.3609 2.56865 25.0609 3.16465 25.2102 3.97932C25.4147 5.09221 25.5622 6.21043 25.6529 7.33398H2.34758C2.43736 6.21043 2.58491 5.09221 2.79025 3.97932C2.86305 3.58463 3.06957 3.22705 3.37505 2.96674C3.68053 2.70643 4.06634 2.55926 4.46758 2.54998ZM2.24224 10.0007C2.24224 12.0167 2.42491 14.0313 2.79158 16.022C2.94091 16.8353 3.64091 17.4327 4.46758 17.4513L14.0009 17.6673L23.5342 17.4513C23.9353 17.4417 24.3207 17.2944 24.626 17.0341C24.9312 16.7739 25.1375 16.4165 25.2102 16.022C25.5769 14.0313 25.7596 12.0167 25.7596 10.0007H2.24224Z" fill="#373737"/>
</svg>
