<svg width="32" height="32" viewBox="0 0 32 32" fill="none" xmlns="http://www.w3.org/2000/svg">
<path d="M7.33333 9.33464C7.33333 8.80935 7.4368 8.2892 7.63782 7.8039C7.83883 7.3186 8.13347 6.87764 8.50491 6.50621C8.87634 6.13477 9.3173 5.84014 9.8026 5.63912C10.2879 5.4381 10.808 5.33464 11.3333 5.33464C11.8586 5.33464 12.3788 5.4381 12.8641 5.63912C13.3494 5.84014 13.7903 6.13477 14.1618 6.50621C14.5332 6.87764 14.8278 7.3186 15.0289 7.8039C15.2299 8.2892 15.3333 8.80935 15.3333 9.33464C15.3333 10.3955 14.9119 11.4129 14.1618 12.1631C13.4116 12.9132 12.3942 13.3346 11.3333 13.3346C10.2725 13.3346 9.25505 12.9132 8.50491 12.1631C7.75476 11.4129 7.33333 10.3955 7.33333 9.33464ZM11.3333 2.66797C9.56522 2.66797 7.86953 3.37035 6.61929 4.62059C5.36905 5.87083 4.66667 7.56653 4.66667 9.33464C4.66667 11.1027 5.36905 12.7984 6.61929 14.0487C7.86953 15.2989 9.56522 16.0013 11.3333 16.0013C13.1014 16.0013 14.7971 15.2989 16.0474 14.0487C17.2976 12.7984 18 11.1027 18 9.33464C18 7.56653 17.2976 5.87083 16.0474 4.62059C14.7971 3.37035 13.1014 2.66797 11.3333 2.66797ZM20.6667 2.66797H19.3333V5.33464H20.6667C21.192 5.33464 21.7121 5.4381 22.1974 5.63912C22.6827 5.84014 23.1237 6.13477 23.4951 6.50621C23.8665 6.87764 24.1612 7.3186 24.3622 7.8039C24.5632 8.2892 24.6667 8.80935 24.6667 9.33464C24.6667 9.85992 24.5632 10.3801 24.3622 10.8654C24.1612 11.3507 23.8665 11.7916 23.4951 12.1631C23.1237 12.5345 22.6827 12.8291 22.1974 13.0302C21.7121 13.2312 21.192 13.3346 20.6667 13.3346H19.3333V16.0013H20.6667C22.4348 16.0013 24.1305 15.2989 25.3807 14.0487C26.631 12.7984 27.3333 11.1027 27.3333 9.33464C27.3333 7.56653 26.631 5.87083 25.3807 4.62059C24.1305 3.37035 22.4348 2.66797 20.6667 2.66797ZM0 25.3346C0 23.5665 0.702379 21.8708 1.95262 20.6206C3.20286 19.3703 4.89856 18.668 6.66667 18.668H16C17.7681 18.668 19.4638 19.3703 20.714 20.6206C21.9643 21.8708 22.6667 23.5665 22.6667 25.3346V28.0013H20V25.3346C20 24.2738 19.5786 23.2564 18.8284 22.5062C18.0783 21.7561 17.0609 21.3346 16 21.3346H6.66667C5.6058 21.3346 4.58839 21.7561 3.83824 22.5062C3.08809 23.2564 2.66667 24.2738 2.66667 25.3346V28.0013H0V25.3346ZM32 25.3346C32 24.4592 31.8276 23.5922 31.4925 22.7834C31.1575 21.9746 30.6664 21.2396 30.0474 20.6206C29.4283 20.0015 28.6934 19.5105 27.8846 19.1754C27.0757 18.8404 26.2088 18.668 25.3333 18.668H24V21.3346H25.3333C26.3942 21.3346 27.4116 21.7561 28.1618 22.5062C28.9119 23.2564 29.3333 24.2738 29.3333 25.3346V28.0013H32V25.3346Z" fill="#373737"/>
</svg>
