<svg width="32" height="32" viewBox="0 0 32 32" fill="none" xmlns="http://www.w3.org/2000/svg">
<path d="M28.8976 24.7381C28.0404 23.974 27.29 23.098 26.6665 22.1337C25.9851 20.8029 25.5771 19.3491 25.4665 17.8581V13.467C25.4724 11.1253 24.623 8.8621 23.0778 7.10255C21.5327 5.34299 19.3982 4.20822 17.0754 3.91146V2.76479C17.0754 2.45007 16.9504 2.14823 16.7278 1.92569C16.5053 1.70315 16.2034 1.57812 15.8887 1.57812C15.574 1.57812 15.2722 1.70315 15.0496 1.92569C14.8271 2.14823 14.702 2.45007 14.702 2.76479V3.92924C12.4001 4.24739 10.2914 5.38902 8.76652 7.14266C7.24168 8.89631 6.40403 11.1431 6.40872 13.467V17.8581C6.2981 19.3491 5.89008 20.8029 5.20872 22.1337C4.59617 23.0958 3.85778 23.9717 3.01316 24.7381C2.91834 24.8214 2.84235 24.924 2.79024 25.0389C2.73813 25.1539 2.7111 25.2786 2.71094 25.4048V26.6137C2.71094 26.8494 2.80459 27.0755 2.97129 27.2422C3.13799 27.4089 3.36408 27.5026 3.59983 27.5026H28.3109C28.5467 27.5026 28.7728 27.4089 28.9395 27.2422C29.1062 27.0755 29.1998 26.8494 29.1998 26.6137V25.4048C29.1997 25.2786 29.1726 25.1539 29.1205 25.0389C29.0684 24.924 28.9924 24.8214 28.8976 24.7381ZM4.55983 25.7248C5.38667 24.9257 6.11482 24.0304 6.72872 23.0581C7.58719 21.451 8.08754 19.677 8.19538 17.8581V13.467C8.16013 12.4253 8.33487 11.3871 8.7092 10.4143C9.08353 9.44147 9.64979 8.55393 10.3743 7.80453C11.0987 7.05512 11.9666 6.45916 12.9262 6.05215C13.8858 5.64513 14.9175 5.43538 15.9598 5.43538C17.0022 5.43538 18.0339 5.64513 18.9934 6.05215C19.953 6.45916 20.8209 7.05512 21.5454 7.80453C22.2699 8.55393 22.8361 9.44147 23.2105 10.4143C23.5848 11.3871 23.7595 12.4253 23.7243 13.467V17.8581C23.8321 19.677 24.3325 21.451 25.1909 23.0581C25.8048 24.0304 26.533 24.9257 27.3598 25.7248H4.55983Z" fill="#373737"/>
<path d="M15.9994 30.4681C16.5594 30.4552 17.0967 30.2447 17.5164 29.8738C17.9361 29.5029 18.2111 28.9955 18.2927 28.4414H13.6172C13.7012 29.0106 13.989 29.5299 14.4272 29.9027C14.8654 30.2755 15.4241 30.4764 15.9994 30.4681Z" fill="#373737"/>
</svg>
