<svg width="30" height="29" viewBox="0 0 30 29" fill="none" xmlns="http://www.w3.org/2000/svg">
<path d="M1.66602 13.9987C1.66602 8.9707 1.66602 6.45603 3.22868 4.8947C4.79135 3.33336 7.30468 3.33203 12.3327 3.33203H17.666C22.694 3.33203 25.2087 3.33203 26.77 4.8947C28.3313 6.45736 28.3327 8.9707 28.3327 13.9987V16.6654C28.3327 21.6934 28.3327 24.208 26.77 25.7694C25.2073 27.3307 22.694 27.332 17.666 27.332H12.3327C7.30468 27.332 4.79002 27.332 3.22868 25.7694C1.66735 24.2067 1.66602 21.6934 1.66602 16.6654V13.9987Z" stroke="#373737" stroke-width="2"/>
<path d="M8.33203 3.33203V1.33203M21.6654 3.33203V1.33203M2.33203 9.9987H27.6654" stroke="#373737" stroke-width="2" stroke-linecap="round"/>
<path d="M23 20.6667C23 21.0203 22.8595 21.3594 22.6095 21.6095C22.3594 21.8595 22.0203 22 21.6667 22C21.313 22 20.9739 21.8595 20.7239 21.6095C20.4738 21.3594 20.3333 21.0203 20.3333 20.6667C20.3333 20.313 20.4738 19.9739 20.7239 19.7239C20.9739 19.4738 21.313 19.3333 21.6667 19.3333C22.0203 19.3333 22.3594 19.4738 22.6095 19.7239C22.8595 19.9739 23 20.313 23 20.6667ZM23 15.3333C23 15.687 22.8595 16.0261 22.6095 16.2761C22.3594 16.5262 22.0203 16.6667 21.6667 16.6667C21.313 16.6667 20.9739 16.5262 20.7239 16.2761C20.4738 16.0261 20.3333 15.687 20.3333 15.3333C20.3333 14.9797 20.4738 14.6406 20.7239 14.3905C20.9739 14.1405 21.313 14 21.6667 14C22.0203 14 22.3594 14.1405 22.6095 14.3905C22.8595 14.6406 23 14.9797 23 15.3333ZM16.3333 20.6667C16.3333 21.0203 16.1929 21.3594 15.9428 21.6095C15.6928 21.8595 15.3536 22 15 22C14.6464 22 14.3072 21.8595 14.0572 21.6095C13.8071 21.3594 13.6667 21.0203 13.6667 20.6667C13.6667 20.313 13.8071 19.9739 14.0572 19.7239C14.3072 19.4738 14.6464 19.3333 15 19.3333C15.3536 19.3333 15.6928 19.4738 15.9428 19.7239C16.1929 19.9739 16.3333 20.313 16.3333 20.6667ZM16.3333 15.3333C16.3333 15.687 16.1929 16.0261 15.9428 16.2761C15.6928 16.5262 15.3536 16.6667 15 16.6667C14.6464 16.6667 14.3072 16.5262 14.0572 16.2761C13.8071 16.0261 13.6667 15.687 13.6667 15.3333C13.6667 14.9797 13.8071 14.6406 14.0572 14.3905C14.3072 14.1405 14.6464 14 15 14C15.3536 14 15.6928 14.1405 15.9428 14.3905C16.1929 14.6406 16.3333 14.9797 16.3333 15.3333ZM9.66667 20.6667C9.66667 21.0203 9.52619 21.3594 9.27614 21.6095C9.02609 21.8595 8.68696 22 8.33333 22C7.97971 22 7.64057 21.8595 7.39052 21.6095C7.14048 21.3594 7 21.0203 7 20.6667C7 20.313 7.14048 19.9739 7.39052 19.7239C7.64057 19.4738 7.97971 19.3333 8.33333 19.3333C8.68696 19.3333 9.02609 19.4738 9.27614 19.7239C9.52619 19.9739 9.66667 20.313 9.66667 20.6667ZM9.66667 15.3333C9.66667 15.687 9.52619 16.0261 9.27614 16.2761C9.02609 16.5262 8.68696 16.6667 8.33333 16.6667C7.97971 16.6667 7.64057 16.5262 7.39052 16.2761C7.14048 16.0261 7 15.687 7 15.3333C7 14.9797 7.14048 14.6406 7.39052 14.3905C7.64057 14.1405 7.97971 14 8.33333 14C8.68696 14 9.02609 14.1405 9.27614 14.3905C9.52619 14.6406 9.66667 14.9797 9.66667 15.3333Z" fill="#373737"/>
</svg>
