<svg width="32" height="32" viewBox="0 0 32 32" fill="none" xmlns="http://www.w3.org/2000/svg">
<rect x="0.00390625" y="0.00390625" width="31.9955" height="31.9955" rx="15.9977" fill="#1A202C" fill-opacity="0.8"/>
<path d="M16.0013 8.73047C20.017 8.73047 23.2721 11.9856 23.2721 16.0013C23.2721 20.017 20.017 23.2721 16.0013 23.2721C11.9856 23.2721 8.73047 20.017 8.73047 16.0013C8.73047 11.9856 11.9856 8.73047 16.0013 8.73047ZM16.0013 10.1846C14.4586 10.1846 12.9791 10.7975 11.8883 11.8883C10.7975 12.9791 10.1846 14.4586 10.1846 16.0013C10.1846 17.544 10.7975 19.0235 11.8883 20.1143C12.9791 21.2051 14.4586 21.818 16.0013 21.818C17.544 21.818 19.0235 21.2051 20.1143 20.1143C21.2051 19.0235 21.818 17.544 21.818 16.0013C21.818 14.4586 21.2051 12.9791 20.1143 11.8883C19.0235 10.7975 17.544 10.1846 16.0013 10.1846ZM16.0013 11.6388C16.1794 11.6388 16.3513 11.7042 16.4844 11.8225C16.6174 11.9409 16.7025 12.104 16.7233 12.2808L16.7284 12.3659V15.7003L18.6966 17.6685C18.827 17.7993 18.9027 17.9749 18.9083 18.1596C18.914 18.3442 18.8491 18.5241 18.727 18.6626C18.6048 18.8012 18.4345 18.888 18.2506 18.9056C18.0667 18.9231 17.883 18.8699 17.7369 18.7569L17.6685 18.6966L15.4873 16.5154C15.3743 16.4023 15.3017 16.2551 15.2808 16.0965L15.2742 16.0013V12.3659C15.2742 12.1731 15.3508 11.9881 15.4872 11.8518C15.6235 11.7154 15.8085 11.6388 16.0013 11.6388Z" fill="#F7FAFC"/>
</svg>
