<svg width="33" height="32" viewBox="0 0 33 32" fill="none" xmlns="http://www.w3.org/2000/svg">
<rect x="0.984375" y="-0.0078125" width="32.0155" height="32.0155" rx="16.0077" fill="#1A202C" fill-opacity="0.8"/>
<path d="M12.2614 12.3622C12.2614 12.0755 12.3178 11.7915 12.4276 11.5266C12.5373 11.2616 12.6982 11.0209 12.901 10.8181C13.1037 10.6153 13.3445 10.4545 13.6094 10.3447C13.8744 10.235 14.1583 10.1785 14.4451 10.1785C14.7319 10.1785 15.0158 10.235 15.2808 10.3447C15.5457 10.4545 15.7865 10.6153 15.9892 10.8181C16.192 11.0209 16.3529 11.2616 16.4626 11.5266C16.5724 11.7915 16.6289 12.0755 16.6289 12.3622C16.6289 12.9414 16.3988 13.4969 15.9892 13.9064C15.5797 14.3159 15.0243 14.546 14.4451 14.546C13.8659 14.546 13.3105 14.3159 12.901 13.9064C12.4914 13.4969 12.2614 12.9414 12.2614 12.3622ZM14.4451 8.72266C13.4798 8.72266 12.5541 9.10611 11.8715 9.78867C11.189 10.4712 10.8055 11.397 10.8055 12.3622C10.8055 13.3275 11.189 14.2533 11.8715 14.9358C12.5541 15.6184 13.4798 16.0018 14.4451 16.0018C15.4104 16.0018 16.3361 15.6184 17.0187 14.9358C17.7012 14.2533 18.0847 13.3275 18.0847 12.3622C18.0847 11.397 17.7012 10.4712 17.0187 9.78867C16.3361 9.10611 15.4104 8.72266 14.4451 8.72266ZM19.5405 8.72266H18.8126V10.1785H19.5405C19.8273 10.1785 20.1113 10.235 20.3762 10.3447C20.6412 10.4545 20.8819 10.6153 21.0847 10.8181C21.2874 11.0209 21.4483 11.2616 21.558 11.5266C21.6678 11.7915 21.7243 12.0755 21.7243 12.3622C21.7243 12.649 21.6678 12.933 21.558 13.1979C21.4483 13.4629 21.2874 13.7036 21.0847 13.9064C20.8819 14.1092 20.6412 14.27 20.3762 14.3798C20.1113 14.4895 19.8273 14.546 19.5405 14.546H18.8126V16.0018H19.5405C20.5058 16.0018 21.4315 15.6184 22.1141 14.9358C22.7966 14.2533 23.1801 13.3275 23.1801 12.3622C23.1801 11.397 22.7966 10.4712 22.1141 9.78867C21.4315 9.10611 20.5058 8.72266 19.5405 8.72266ZM8.25781 21.0972C8.25781 20.132 8.64127 19.2062 9.32382 18.5237C10.0064 17.8411 10.9321 17.4577 11.8974 17.4577H16.9928C17.9581 17.4577 18.8838 17.8411 19.5664 18.5237C20.2489 19.2062 20.6324 20.132 20.6324 21.0972V22.5531H19.1766V21.0972C19.1766 20.5181 18.9465 19.9626 18.537 19.5531C18.1274 19.1436 17.572 18.9135 16.9928 18.9135H11.8974C11.3182 18.9135 10.7628 19.1436 10.3533 19.5531C9.94372 19.9626 9.71365 20.5181 9.71365 21.0972V22.5531H8.25781V21.0972ZM25.7278 21.0972C25.7278 20.6193 25.6337 20.146 25.4508 19.7044C25.2679 19.2629 24.9998 18.8616 24.6618 18.5237C24.3238 18.1857 23.9226 17.9176 23.481 17.7347C23.0395 17.5518 22.5662 17.4577 22.0882 17.4577H21.3603V18.9135H22.0882C22.6674 18.9135 23.2228 19.1436 23.6324 19.5531C24.0419 19.9626 24.272 20.5181 24.272 21.0972V22.5531H25.7278V21.0972Z" fill="#F7FAFC"/>
</svg>
