<svg width="28" height="30" viewBox="0 0 28 30" fill="none" xmlns="http://www.w3.org/2000/svg">
<path d="M13.5703 19C15.7795 19 17.5703 17.2091 17.5703 15C17.5703 12.7909 15.7795 11 13.5703 11C11.3612 11 9.57031 12.7909 9.57031 15C9.57031 17.2091 11.3612 19 13.5703 19Z" stroke="#373737" stroke-width="2"/>
<path d="M15.9242 1.87064C15.4349 1.66797 14.8136 1.66797 13.5709 1.66797C12.3282 1.66797 11.7069 1.66797 11.2176 1.87064C10.8938 2.00465 10.5996 2.20116 10.3519 2.44893C10.1041 2.6967 9.9076 2.99088 9.77358 3.31464C9.65091 3.61197 9.60158 3.95997 9.58291 4.4653C9.57423 4.83054 9.47305 5.18761 9.28884 5.50311C9.10462 5.81861 8.84339 6.08222 8.52958 6.2693C8.21066 6.44766 7.8517 6.5422 7.48629 6.54406C7.12088 6.54593 6.76098 6.45506 6.44025 6.27997C5.99225 6.04264 5.66825 5.91197 5.34691 5.8693C4.64601 5.77713 3.93718 5.96704 3.37625 6.3973C2.95758 6.7213 2.64558 7.25864 2.02425 8.33464C1.40291 9.41064 1.09091 9.94797 1.02291 10.4746C0.977093 10.8219 1.00014 11.1748 1.09074 11.5132C1.18133 11.8515 1.3377 12.1687 1.55091 12.4466C1.74825 12.7026 2.02425 12.9173 2.45225 13.1866C3.08291 13.5826 3.48825 14.2573 3.48825 15.0013C3.48825 15.7453 3.08291 16.42 2.45225 16.8146C2.02425 17.0853 1.74691 17.3 1.55091 17.556C1.3377 17.8339 1.18133 18.1511 1.09074 18.4894C1.00014 18.8278 0.977093 19.1807 1.02291 19.528C1.09225 20.0533 1.40291 20.592 2.02291 21.668C2.64558 22.744 2.95625 23.2813 3.37625 23.6053C3.65416 23.8185 3.97136 23.9749 4.30972 24.0655C4.64808 24.1561 5.00098 24.1791 5.34825 24.1333C5.66825 24.0906 5.99225 23.96 6.44025 23.7226C6.76098 23.5475 7.12088 23.4567 7.48629 23.4585C7.8517 23.4604 8.21066 23.5549 8.52958 23.7333C9.17358 24.1066 9.55625 24.7933 9.58291 25.5373C9.60158 26.044 9.64958 26.3906 9.77358 26.688C9.9076 27.0117 10.1041 27.3059 10.3519 27.5537C10.5996 27.8014 10.8938 27.998 11.2176 28.132C11.7069 28.3346 12.3282 28.3346 13.5709 28.3346C14.8136 28.3346 15.4349 28.3346 15.9242 28.132C16.248 27.998 16.5422 27.8014 16.7899 27.5537C17.0377 27.3059 17.2342 27.0117 17.3682 26.688C17.4909 26.3906 17.5402 26.044 17.5589 25.5373C17.5856 24.7933 17.9682 24.1053 18.6122 23.7333C18.9312 23.5549 19.2901 23.4604 19.6555 23.4585C20.0209 23.4567 20.3809 23.5475 20.7016 23.7226C21.1496 23.96 21.4736 24.0906 21.7936 24.1333C22.1408 24.1791 22.4937 24.1561 22.8321 24.0655C23.1705 23.9749 23.4877 23.8185 23.7656 23.6053C24.1856 23.2826 24.4962 22.744 25.1176 21.668C25.7389 20.592 26.0509 20.0546 26.1189 19.528C26.1647 19.1807 26.1417 18.8278 26.0511 18.4894C25.9605 18.1511 25.8041 17.8339 25.5909 17.556C25.3936 17.3 25.1176 17.0853 24.6896 16.816C24.3775 16.6258 24.1187 16.3596 23.9375 16.0422C23.7564 15.7249 23.6587 15.3667 23.6536 15.0013C23.6536 14.2573 24.0589 13.5826 24.6896 13.188C25.1176 12.9173 25.3949 12.7026 25.5909 12.4466C25.8041 12.1687 25.9605 11.8515 26.0511 11.5132C26.1417 11.1748 26.1647 10.8219 26.1189 10.4746C26.0496 9.9493 25.7389 9.41064 25.1189 8.33464C24.4962 7.25864 24.1856 6.7213 23.7656 6.3973C23.4877 6.18409 23.1705 6.02772 22.8321 5.93712C22.4937 5.84653 22.1408 5.82348 21.7936 5.8693C21.4736 5.91197 21.1496 6.04264 20.7002 6.27997C20.3797 6.45483 20.02 6.54556 19.6549 6.5437C19.2897 6.54183 18.931 6.44743 18.6122 6.2693C18.2984 6.08222 18.0372 5.81861 17.853 5.50311C17.6688 5.18761 17.5676 4.83054 17.5589 4.4653C17.5402 3.95864 17.4922 3.61197 17.3682 3.31464C17.2342 2.99088 17.0377 2.6967 16.7899 2.44893C16.5422 2.20116 16.248 2.00465 15.9242 1.87064Z" stroke="#373737" stroke-width="2"/>
</svg>
