<svg width="32" height="32" viewBox="0 0 32 32" fill="none" xmlns="http://www.w3.org/2000/svg">
<rect width="32" height="32" rx="16" fill="#1A202C" fill-opacity="0.8"/>
<path d="M18.908 21.8214V10.185C18.908 9.79924 18.7548 9.42928 18.482 9.1565C18.2092 8.88371 17.8392 8.73047 17.4535 8.73047H14.5444C14.1586 8.73047 13.7887 8.88371 13.5159 9.1565C13.2431 9.42928 13.0898 9.79924 13.0898 10.185V21.8214" stroke="#F7FAFC" stroke-width="1.09091" stroke-linecap="round" stroke-linejoin="round"/>
<path d="M21.8175 11.6406H10.1811C9.37778 11.6406 8.72656 12.2918 8.72656 13.0952V20.3679C8.72656 21.1712 9.37778 21.8224 10.1811 21.8224H21.8175C22.6208 21.8224 23.272 21.1712 23.272 20.3679V13.0952C23.272 12.2918 22.6208 11.6406 21.8175 11.6406Z" stroke="#F7FAFC" stroke-width="1.09091" stroke-linecap="round" stroke-linejoin="round"/>
</svg>
