<svg width="32" height="32" viewBox="0 0 32 32" fill="none" xmlns="http://www.w3.org/2000/svg">
<path d="M11.2007 4H7.46732C6.90152 4 6.3589 4.22476 5.95882 4.62484C5.55875 5.02492 5.33398 5.56754 5.33398 6.13333V12.5333C5.33398 12.8135 5.38916 13.0909 5.49637 13.3497C5.60358 13.6086 5.76073 13.8437 5.95882 14.0418C6.15692 14.2399 6.3921 14.3971 6.65093 14.5043C6.90975 14.6115 7.18716 14.6667 7.46732 14.6667H11.2007C11.4808 14.6667 11.7582 14.6115 12.017 14.5043C12.2759 14.3971 12.511 14.2399 12.7091 14.0418C12.9072 13.8437 13.0644 13.6086 13.1716 13.3497C13.2788 13.0909 13.334 12.8135 13.334 12.5333V6.13333C13.334 5.56754 13.1092 5.02492 12.7091 4.62484C12.3091 4.22476 11.7664 4 11.2007 4ZM11.2007 20H7.46732C6.90152 20 6.3589 20.2248 5.95882 20.6248C5.55875 21.0249 5.33398 21.5675 5.33398 22.1333V25.8667C5.33398 26.4325 5.55875 26.9751 5.95882 27.3752C6.3589 27.7752 6.90152 28 7.46732 28H11.2007C11.7664 28 12.3091 27.7752 12.7091 27.3752C13.1092 26.9751 13.334 26.4325 13.334 25.8667V22.1333C13.334 21.5675 13.1092 21.0249 12.7091 20.6248C12.3091 20.2248 11.7664 20 11.2007 20ZM24.534 4H20.8007C20.2349 4 19.6922 4.22476 19.2922 4.62484C18.8921 5.02492 18.6673 5.56754 18.6673 6.13333V9.86667C18.6673 10.4325 18.8921 10.9751 19.2922 11.3752C19.6922 11.7752 20.2349 12 20.8007 12H24.534C25.0998 12 25.6424 11.7752 26.0425 11.3752C26.4426 10.9751 26.6673 10.4325 26.6673 9.86667V6.13333C26.6673 5.56754 26.4426 5.02492 26.0425 4.62484C25.6424 4.22476 25.0998 4 24.534 4ZM24.534 17.3333H20.8007C20.2349 17.3333 19.6922 17.5581 19.2922 17.9582C18.8921 18.3582 18.6673 18.9009 18.6673 19.4667V25.8667C18.6673 26.4325 18.8921 26.9751 19.2922 27.3752C19.6922 27.7752 20.2349 28 20.8007 28H24.534C25.0998 28 25.6424 27.7752 26.0425 27.3752C26.4426 26.9751 26.6673 26.4325 26.6673 25.8667V19.4667C26.6673 18.9009 26.4426 18.3582 26.0425 17.9582C25.6424 17.5581 25.0998 17.3333 24.534 17.3333Z" stroke="white" stroke-width="2" stroke-miterlimit="10" stroke-linejoin="round"/>
</svg>
