<svg width="24" height="26" viewBox="0 0 24 26" fill="none" xmlns="http://www.w3.org/2000/svg">
<path d="M7.1987 1H3.46536C2.89957 1 2.35695 1.22476 1.95687 1.62484C1.55679 2.02492 1.33203 2.56754 1.33203 3.13333V9.53333C1.33203 9.81349 1.38721 10.0909 1.49442 10.3497C1.60163 10.6086 1.75877 10.8437 1.95687 11.0418C2.15497 11.2399 2.39015 11.3971 2.64897 11.5043C2.9078 11.6115 3.18521 11.6667 3.46536 11.6667H7.1987C7.47885 11.6667 7.75626 11.6115 8.01509 11.5043C8.27392 11.3971 8.50909 11.2399 8.70719 11.0418C8.90529 10.8437 9.06243 10.6086 9.16964 10.3497C9.27685 10.0909 9.33203 9.81349 9.33203 9.53333V3.13333C9.33203 2.56754 9.10727 2.02492 8.70719 1.62484C8.30712 1.22476 7.76449 1 7.1987 1ZM7.1987 17H3.46536C2.89957 17 2.35695 17.2248 1.95687 17.6248C1.55679 18.0249 1.33203 18.5675 1.33203 19.1333V22.8667C1.33203 23.4325 1.55679 23.9751 1.95687 24.3752C2.35695 24.7752 2.89957 25 3.46536 25H7.1987C7.76449 25 8.30712 24.7752 8.70719 24.3752C9.10727 23.9751 9.33203 23.4325 9.33203 22.8667V19.1333C9.33203 18.5675 9.10727 18.0249 8.70719 17.6248C8.30712 17.2248 7.76449 17 7.1987 17ZM20.532 1H16.7987C16.2329 1 15.6903 1.22476 15.2902 1.62484C14.8901 2.02492 14.6654 2.56754 14.6654 3.13333V6.86667C14.6654 7.43246 14.8901 7.97508 15.2902 8.37516C15.6903 8.77524 16.2329 9 16.7987 9H20.532C21.0978 9 21.6404 8.77524 22.0405 8.37516C22.4406 7.97508 22.6654 7.43246 22.6654 6.86667V3.13333C22.6654 2.56754 22.4406 2.02492 22.0405 1.62484C21.6404 1.22476 21.0978 1 20.532 1ZM20.532 14.3333H16.7987C16.2329 14.3333 15.6903 14.5581 15.2902 14.9582C14.8901 15.3582 14.6654 15.9009 14.6654 16.4667V22.8667C14.6654 23.4325 14.8901 23.9751 15.2902 24.3752C15.6903 24.7752 16.2329 25 16.7987 25H20.532C21.0978 25 21.6404 24.7752 22.0405 24.3752C22.4406 23.9751 22.6654 23.4325 22.6654 22.8667V16.4667C22.6654 15.9009 22.4406 15.3582 22.0405 14.9582C21.6404 14.5581 21.0978 14.3333 20.532 14.3333Z" stroke="#373737" stroke-width="2" stroke-miterlimit="10" stroke-linejoin="round"/>
</svg>
