<svg width="23" height="22" viewBox="0 0 23 22" fill="none" xmlns="http://www.w3.org/2000/svg">
<path d="M11.5007 15.7673C11.3229 15.7673 11.1562 15.7398 11.0007 15.6847C10.8451 15.6295 10.7007 15.5349 10.5673 15.4007L5.76732 10.6007C5.50065 10.334 5.37265 10.0229 5.38332 9.66732C5.39398 9.31177 5.52198 9.00066 5.76732 8.73399C6.03398 8.46732 6.35087 8.32866 6.71798 8.31799C7.0851 8.30732 7.40154 8.43488 7.66732 8.70065L10.1673 11.2007V1.66732C10.1673 1.28954 10.2953 0.9731 10.5513 0.717989C10.8073 0.462878 11.1238 0.334878 11.5007 0.333989C11.8775 0.3331 12.1944 0.4611 12.4513 0.717989C12.7082 0.974878 12.8358 1.29132 12.834 1.66732V11.2007L15.334 8.70065C15.6007 8.43399 15.9175 8.30599 16.2847 8.31666C16.6518 8.32732 16.9682 8.46643 17.234 8.73399C17.4784 9.00066 17.6064 9.31177 17.618 9.66732C17.6295 10.0229 17.5015 10.334 17.234 10.6007L12.434 15.4007C12.3007 15.534 12.1562 15.6287 12.0007 15.6847C11.8451 15.7407 11.6784 15.7682 11.5007 15.7673ZM3.50065 21.6673C2.76732 21.6673 2.13976 21.4064 1.61798 20.8847C1.09621 20.3629 0.834873 19.7349 0.833984 19.0007V16.334C0.833984 15.9562 0.961985 15.6398 1.21798 15.3847C1.47398 15.1295 1.79043 15.0015 2.16732 15.0007C2.54421 14.9998 2.8611 15.1278 3.11798 15.3847C3.37487 15.6415 3.50243 15.958 3.50065 16.334V19.0007H19.5007V16.334C19.5007 15.9562 19.6287 15.6398 19.8847 15.3847C20.1407 15.1295 20.4571 15.0015 20.834 15.0007C21.2109 14.9998 21.5278 15.1278 21.7847 15.3847C22.0415 15.6415 22.1691 15.958 22.1673 16.334V19.0007C22.1673 19.734 21.9064 20.362 21.3847 20.8847C20.8629 21.4073 20.2349 21.6682 19.5007 21.6673H3.50065Z" fill="#F7FAFC"/>
</svg>
