<svg width="28" height="28" viewBox="0 0 28 28" fill="none" xmlns="http://www.w3.org/2000/svg">
<path d="M17.5006 23.1933C17.5473 23.5433 17.4306 23.9167 17.1623 24.1617C17.0544 24.2698 16.9262 24.3556 16.785 24.4142C16.6439 24.4727 16.4926 24.5028 16.3398 24.5028C16.187 24.5028 16.0357 24.4727 15.8946 24.4142C15.7534 24.3556 15.6252 24.2698 15.5173 24.1617L10.839 19.4833C10.7118 19.3589 10.6151 19.2068 10.5564 19.0388C10.4977 18.8708 10.4786 18.6916 10.5006 18.515V12.5417L4.91231 5.39C4.72285 5.14679 4.63736 4.83847 4.67453 4.53242C4.71169 4.22637 4.86848 3.94747 5.11064 3.75667C5.33231 3.59333 5.57731 3.5 5.83397 3.5H22.1673C22.424 3.5 22.669 3.59333 22.8906 3.75667C23.1328 3.94747 23.2896 4.22637 23.3268 4.53242C23.3639 4.83847 23.2784 5.14679 23.089 5.39L17.5006 12.5417V23.1933ZM8.21397 5.83333L12.834 11.7367V18.1767L15.1673 20.51V11.725L19.7873 5.83333H8.21397Z" fill="#373737"/>
</svg>
