<svg width="19" height="23" viewBox="0 0 19 23" fill="none" xmlns="http://www.w3.org/2000/svg">
<path d="M6.45951 9.21099H7.56742C7.86126 9.21099 8.14306 9.09426 8.35084 8.88649C8.55861 8.67871 8.67534 8.39691 8.67534 8.10307C8.67534 7.80924 8.55861 7.52743 8.35084 7.31966C8.14306 7.11188 7.86126 6.99516 7.56742 6.99516H6.45951C6.16567 6.99516 5.88386 7.11188 5.67609 7.31966C5.46832 7.52743 5.35159 7.80924 5.35159 8.10307C5.35159 8.39691 5.46832 8.67871 5.67609 8.88649C5.88386 9.09426 6.16567 9.21099 6.45951 9.21099ZM6.45951 11.4268C6.16567 11.4268 5.88386 11.5436 5.67609 11.7513C5.46832 11.9591 5.35159 12.2409 5.35159 12.5347C5.35159 12.8286 5.46832 13.1104 5.67609 13.3182C5.88386 13.5259 6.16567 13.6427 6.45951 13.6427H13.107C13.4008 13.6427 13.6826 13.5259 13.8904 13.3182C14.0982 13.1104 14.2149 12.8286 14.2149 12.5347C14.2149 12.2409 14.0982 11.9591 13.8904 11.7513C13.6826 11.5436 13.4008 11.4268 13.107 11.4268H6.45951ZM18.6466 8.0366C18.6351 7.9348 18.6128 7.83453 18.5801 7.73746V7.63775C18.5281 7.52314 18.4569 7.41823 18.3696 7.32753L11.7221 0.680031C11.6314 0.59275 11.5265 0.521563 11.4119 0.469527C11.3788 0.464513 11.3452 0.464513 11.3122 0.469527C11.1994 0.405514 11.0752 0.364118 10.9466 0.347656H4.24367C3.36216 0.347656 2.51675 0.697836 1.89343 1.32116C1.2701 1.94448 0.919922 2.78989 0.919922 3.67141V19.1822C0.919922 20.0638 1.2701 20.9092 1.89343 21.5325C2.51675 22.1558 3.36216 22.506 4.24367 22.506H15.3228C16.2044 22.506 17.0498 22.1558 17.6731 21.5325C18.2964 20.9092 18.6466 20.0638 18.6466 19.1822V8.0366ZM11.9991 4.12565L14.8686 6.99516H13.107C12.8132 6.99516 12.5314 6.87843 12.3236 6.67066C12.1158 6.46288 11.9991 6.18108 11.9991 5.88724V4.12565ZM16.4308 19.1822C16.4308 19.4761 16.314 19.7579 16.1063 19.9657C15.8985 20.1734 15.6167 20.2902 15.3228 20.2902H4.24367C3.94983 20.2902 3.66803 20.1734 3.46026 19.9657C3.25248 19.7579 3.13576 19.4761 3.13576 19.1822V3.67141C3.13576 3.37757 3.25248 3.09577 3.46026 2.88799C3.66803 2.68022 3.94983 2.56349 4.24367 2.56349H9.78326V5.88724C9.78326 6.76875 10.1334 7.61416 10.7568 8.23749C11.3801 8.86081 12.2255 9.21099 13.107 9.21099H16.4308V19.1822ZM13.107 15.8585H6.45951C6.16567 15.8585 5.88386 15.9752 5.67609 16.183C5.46832 16.3908 5.35159 16.6726 5.35159 16.9664C5.35159 17.2602 5.46832 17.542 5.67609 17.7498C5.88386 17.9576 6.16567 18.0743 6.45951 18.0743H13.107C13.4008 18.0743 13.6826 17.9576 13.8904 17.7498C14.0982 17.542 14.2149 17.2602 14.2149 16.9664C14.2149 16.6726 14.0982 16.3908 13.8904 16.183C13.6826 15.9752 13.4008 15.8585 13.107 15.8585Z" fill="black"/>
</svg>
