<svg width="32" height="32" viewBox="0 0 32 32" fill="none" xmlns="http://www.w3.org/2000/svg">
<rect x="0.00390625" y="0.00390625" width="31.9955" height="31.9955" rx="15.9977" fill="#1A202C" fill-opacity="0.8"/>
<path fill-rule="evenodd" clip-rule="evenodd" d="M21.2262 10.8483L16.0028 10.7305L10.7794 10.8483C10.31 10.859 9.85856 11.0312 9.50114 11.3358C9.14373 11.6403 8.90214 12.0587 8.81704 12.5205C8.39432 14.8219 8.39432 17.181 8.81704 19.4824C8.90217 19.9443 9.14386 20.3628 9.50142 20.6674C9.85899 20.972 10.3106 21.1441 10.7802 21.1547L16.0028 21.2732L21.2262 21.1554C21.6956 21.1446 22.1471 20.9725 22.5045 20.6679C22.8619 20.3633 23.1035 19.9449 23.1886 19.4831C23.611 17.1812 23.611 14.8225 23.1886 12.5213C23.1034 12.0593 22.8617 11.6409 22.5042 11.3363C22.1466 11.0317 21.695 10.8596 21.2254 10.849M10.8042 11.9389L16.0028 11.8211L21.2015 11.9389C21.6522 11.9491 22.034 12.2741 22.1154 12.7183C22.2269 13.3252 22.3073 13.935 22.3568 14.5477H9.6481C9.69705 13.935 9.77752 13.3252 9.88949 12.7183C9.92919 12.5031 10.0418 12.3081 10.2084 12.1661C10.375 12.0242 10.5854 11.9439 10.8042 11.9389ZM9.59066 16.0018C9.59066 17.1012 9.69027 18.1998 9.89021 19.2853C9.97165 19.7289 10.3534 20.0546 10.8042 20.0648L16.0028 20.1826L21.2015 20.0648C21.4201 20.0595 21.6303 19.9792 21.7968 19.8373C21.9632 19.6953 22.0757 19.5004 22.1154 19.2853C22.3153 18.1998 22.415 17.1012 22.415 16.0018H9.59066Z" fill="#F7FAFC"/>
</svg>
