<svg width="19" height="20" viewBox="0 0 19 20" fill="none" xmlns="http://www.w3.org/2000/svg">
<path d="M17.4993 11.3346H10.8327V18.0013C10.8327 18.3549 10.6922 18.6941 10.4422 18.9441C10.1921 19.1942 9.85297 19.3346 9.49935 19.3346C9.14573 19.3346 8.80659 19.1942 8.55654 18.9441C8.30649 18.6941 8.16602 18.3549 8.16602 18.0013V11.3346H1.49935C1.14573 11.3346 0.806589 11.1942 0.55654 10.9441C0.306492 10.6941 0.166016 10.3549 0.166016 10.0013C0.166016 9.64768 0.306492 9.30854 0.55654 9.05849C0.806589 8.80844 1.14573 8.66797 1.49935 8.66797H8.16602V2.0013C8.16602 1.64768 8.30649 1.30854 8.55654 1.05849C8.80659 0.808444 9.14573 0.667969 9.49935 0.667969C9.85297 0.667969 10.1921 0.808444 10.4422 1.05849C10.6922 1.30854 10.8327 1.64768 10.8327 2.0013V8.66797H17.4993C17.853 8.66797 18.1921 8.80844 18.4422 9.05849C18.6922 9.30854 18.8327 9.64768 18.8327 10.0013C18.8327 10.3549 18.6922 10.6941 18.4422 10.9441C18.1921 11.1942 17.853 11.3346 17.4993 11.3346Z" fill="white"/>
</svg>
