<svg width="32" height="32" viewBox="0 0 32 32" fill="none" xmlns="http://www.w3.org/2000/svg">
<path d="M4.00195 31.5016C2.90195 31.5016 1.96062 31.1103 1.17795 30.3276C0.395286 29.5449 0.00328646 28.6029 0.00195312 27.5016V23.5016C0.00195312 22.9349 0.193953 22.4603 0.577953 22.0776C0.961953 21.6949 1.43662 21.5029 2.00195 21.5016C2.56729 21.5003 3.04262 21.6923 3.42795 22.0776C3.81329 22.4629 4.00462 22.9376 4.00195 23.5016V27.5016H28.002V23.5016C28.002 22.9349 28.194 22.4603 28.578 22.0776C28.962 21.6949 29.4366 21.5029 30.002 21.5016C30.5673 21.5003 31.0426 21.6923 31.428 22.0776C31.8133 22.4629 32.0046 22.9376 32.002 23.5016V27.5016C32.002 28.6016 31.6106 29.5436 30.828 30.3276C30.0453 31.1116 29.1033 31.5029 28.002 31.5016H4.00195ZM14.002 7.20159L10.252 10.9516C9.85195 11.3516 9.37729 11.5436 8.82795 11.5276C8.27862 11.5116 7.80329 11.3029 7.40195 10.9016C7.03529 10.5016 6.84329 10.0349 6.82595 9.50159C6.80862 8.96826 7.00062 8.50159 7.40195 8.10159L14.602 0.901593C14.802 0.701593 15.0186 0.560259 15.252 0.477593C15.4853 0.394926 15.7353 0.352927 16.002 0.351593C16.2686 0.35026 16.5186 0.392259 16.752 0.477593C16.9853 0.562926 17.202 0.704259 17.402 0.901593L24.602 8.10159C25.002 8.50159 25.194 8.96826 25.178 9.50159C25.162 10.0349 24.97 10.5016 24.602 10.9016C24.202 11.3016 23.7273 11.5103 23.178 11.5276C22.6286 11.5449 22.1533 11.3529 21.752 10.9516L18.002 7.20159V21.5016C18.002 22.0683 17.81 22.5436 17.426 22.9276C17.042 23.3116 16.5673 23.5029 16.002 23.5016C15.4366 23.5003 14.962 23.3083 14.578 22.9256C14.194 22.5429 14.002 22.0683 14.002 21.5016V7.20159Z" fill="#868686"/>
</svg>
